# xmcd CD database file
#
# Track frame offsets:
#	150
#	13114
#	34088
#	46611
#	65545
#	78726
#	99954
#	122142
#	143012
#	152968
#	169503
#	187751
#	206115
#	217296
#
# Disc length: 3178 seconds
#
# Revision: 1
# Processed by: cddbd v1.5.2PL0 Copyright (c) Steve Scherf et al.
# Submitted via: CDex 1.51
#
DISCID=bf0c680e
DTITLE=Milan Polak - Guitar Odyssey
DYEAR=2005
DGENRE=Jazz
TTITLE0=Lights, Camera, Action
TTITLE1=Where Were You Tomorrow
TTITLE2=Inner Peace
TTITLE3=Vinka
TTITLE4=More Than I've Been
TTITLE5=Absolutely Positive
TTITLE6=Could've Been Love (acoustic)
TTITLE7=Cruisin'
TTITLE8=Tendonitis
TTITLE9=Chain Reaction
TTITLE10=Sylphe
TTITLE11=Witchdance
TTITLE12=Sunrise
TTITLE13=Where Were You Tomorrow - demo version (bonus track)
EXTD=YEAR: 2005
EXTT0=
EXTT1=
EXTT2=
EXTT3=
EXTT4=
EXTT5=
EXTT6=
EXTT7=
EXTT8=
EXTT9=
EXTT10=
EXTT11=
EXTT12=
EXTT13=
PLAYORDER=
